<?xml version="1.0" encoding="UTF-8" standalone="no"?>
<svg
   width="37.794998"
   height="37.795277"
   viewBox="0 0 9.9999266 10"
   version="1.1"
   id="svg891"
   inkscape:version="1.2.2 (732a01da63, 2022-12-09)"
   sodipodi:docname="hubhoplogo.svg"
   xmlns:inkscape="http://www.inkscape.org/namespaces/inkscape"
   xmlns:sodipodi="http://sodipodi.sourceforge.net/DTD/sodipodi-0.dtd"
   xmlns="http://www.w3.org/2000/svg"
   xmlns:svg="http://www.w3.org/2000/svg"
   xmlns:rdf="http://www.w3.org/1999/02/22-rdf-syntax-ns#"
   xmlns:cc="http://creativecommons.org/ns#"
   xmlns:dc="http://purl.org/dc/elements/1.1/">
  <defs
     id="defs885" />
  <sodipodi:namedview
     id="base"
     pagecolor="#ffffff"
     bordercolor="#666666"
     borderopacity="1.0"
     inkscape:pageopacity="0.0"
     inkscape:pageshadow="2"
     inkscape:zoom="10.807423"
     inkscape:cx="54.684639"
     inkscape:cy="44.969094"
     inkscape:document-units="mm"
     inkscape:current-layer="layer1"
     inkscape:document-rotation="0"
     showgrid="false"
     inkscape:window-width="3840"
     inkscape:window-height="2054"
     inkscape:window-x="2029"
     inkscape:window-y="-11"
     inkscape:window-maximized="1"
     inkscape:showpageshadow="2"
     inkscape:pagecheckerboard="0"
     inkscape:deskcolor="#d1d1d1" />
  <metadata
     id="metadata888">
    <rdf:RDF>
      <cc:Work
         rdf:about="">
        <dc:format>image/svg+xml</dc:format>
        <dc:type
           rdf:resource="http://purl.org/dc/dcmitype/StillImage" />
      </cc:Work>
    </rdf:RDF>
  </metadata>
  <g
     inkscape:label="Layer 1"
     inkscape:groupmode="layer"
     id="layer1">
    <path
       id="path847"
       style="font-variation-settings:'wdth' 87, 'wght' 700;fill:none;stroke:#ffffff;stroke-width:0.5;stroke-miterlimit:4;stroke-dasharray:none;stop-color:#000000"
       d="M 2.8254303,0.66702107 C 2.4003304,0.66703194 2.0557278,1.0116518 2.0557405,1.4367517 c 9.9e-6,0.4250837 0.3446062,0.7696799 0.7696898,0.7696908 0.2035117,-1e-5 0.3987361,-0.080616 0.5429723,-0.2241869 0.1523521,0.1402914 0.3654164,0.4017725 0.463558,0.827052 0.048348,0.2095021 0.080997,0.3680278 0.1047221,0.4938457 C 3.3409601,3.5135709 2.8618544,3.9658632 2.6175125,4.5484918 L 2.1203312,4.3487272 2.1741629,4.0311519 1.7965761,4.1163635 C 1.7220329,3.7699236 1.4611146,3.4444173 1.0330271,3.4444291 c -0.42807203,1e-5 -0.77508476,0.3470408 -0.77507298,0.7751129 9.97e-6,0.4280567 0.34701636,0.775063 0.77507298,0.775073 0.2447371,-1.8e-6 0.4750967,-0.1155917 0.6213831,-0.3117969 l 0.2613842,0.2472043 0.053832,-0.1399107 0.5136888,0.202937 c -0.02663,0.1388929 -0.040036,0.2799964 -0.040054,0.4214191 3.6e-6,0.5182979 0.1798081,1.0205433 0.5087489,1.4210814 L 2.0449796,7.6859404 1.8404907,7.4015452 c 0,0 -0.038568,0.3138263 -0.055128,0.3877522 -0.1064733,-0.050342 -0.203945,-0.049535 -0.3217194,-0.049526 -0.4399478,10e-6 -0.796593,0.3566561 -0.79660387,0.7966039 9.97e-6,0.4399479 0.35665607,0.796594 0.79660387,0.7966039 0.4399488,-9.9e-6 0.7965948,-0.356656 0.7966048,-0.7966039 1.8e-6,-0.069902 -0.0092,-0.1394946 -0.027355,-0.206995 L 2.6074333,8.2564684 2.4701747,8.0492368 3.441597,7.2783803 c 0.3675637,0.2447008 0.7992732,0.375262 1.24084,0.3752647 0.6209452,-4.6e-6 1.2520676,-0.2806944 1.675575,-0.7348022 v 0 0 l 0.6510499,0.3016134 c -9.019e-4,0.015191 -0.00136,0.03041 -0.00136,0.045638 1.08e-5,0.422126 0.3422214,0.7643193 0.7643484,0.7643076 C 8.1941613,8.0303916 8.5363483,7.6882055 8.5363582,7.266094 8.53637,6.843967 8.1941767,6.5017565 7.7720507,6.5017456 c -0.2472243,0 -0.4791801,0.1195772 -0.6225895,0.3209552 L 6.6447385,6.5276481 C 6.7371072,6.3613436 6.921587,5.7949424 6.9215788,5.4144741 6.9215861,5.2042876 6.8920027,4.9951471 6.8336842,4.7932107 7.033883,4.7326535 7.3088071,4.6224567 7.5782683,4.4456233 7.922754,4.2195547 8.1595636,4.0150051 8.1595636,4.0150051 l 0.096889,0.1399506 c 0,0 0.183015,-0.043064 0.2583704,-0.1937777 0.035549,-0.07109 0.080462,-0.2257886 0.1182194,-0.3696413 0.1127864,0.065814 0.2410262,0.1004964 0.37161,0.1005046 C 9.4118987,3.6920295 9.7420345,3.3618941 9.7420454,2.9546468 9.7420572,2.547385 9.4119141,2.2172242 9.0046523,2.2172134 8.5973741,2.2172016 8.2672061,2.5473687 8.2672179,2.9546468 c 3.6e-6,0.078985 0.012699,0.1574615 0.037598,0.2324217 L 7.7720461,3.218403 7.6428609,3.2829938 7.7397489,3.4444354 6.5878858,4.1657212 6.5522548,4.1825895 C 5.9749985,3.5227048 5.341833,3.146309 4.6146737,3.1763393 4.5525031,2.943217 4.5546785,2.9264203 4.2329854,2.3060279 4.0795945,2.0102111 3.698295,1.7022809 3.5786987,1.5950218 3.5896391,1.5429757 3.5951592,1.4899371 3.5951682,1.4367535 3.59518,1.0116382 3.2505529,0.6670111 2.8254385,0.66702288 Z"
       sodipodi:nodetypes="scccsccccccccccccccccccccsccccccccccsscccccsccsccssscccccccsccss" />
  </g>
</svg>
