<?xml version="1.0" encoding="UTF-8" standalone="no"?>
<!-- Created with Inkscape (http://www.inkscape.org/) -->

<svg
   width="6.3499999mm"
   height="6.3499999mm"
   viewBox="0 0 24 24"
   version="1.1"
   id="SVGRoot"
   xml:space="preserve"
   xmlns:xlink="http://www.w3.org/1999/xlink"
   xmlns="http://www.w3.org/2000/svg"
   xmlns:svg="http://www.w3.org/2000/svg"><defs
     id="defs44105"><linearGradient
       id="linearGradient190538"><stop
         style="stop-color:#15aabf;stop-opacity:1;"
         offset="0"
         id="stop190536" /></linearGradient><linearGradient
       id="linearGradient190532"><stop
         style="stop-color:#82c91e;stop-opacity:1;"
         offset="0"
         id="stop190530" /></linearGradient><linearGradient
       id="linearGradient188951"><stop
         style="stop-color:#000000;stop-opacity:1;"
         offset="0"
         id="stop188949" /></linearGradient><linearGradient
       id="linearGradient188884"><stop
         style="stop-color:#000000;stop-opacity:1;"
         offset="0"
         id="stop188882" /></linearGradient><linearGradient
       id="linearGradient188861"><stop
         style="stop-color:#000000;stop-opacity:1;"
         offset="0"
         id="stop188859" /></linearGradient><linearGradient
       id="linearGradient188812"><stop
         style="stop-color:#000000;stop-opacity:1;"
         offset="0"
         id="stop188810" /></linearGradient><linearGradient
       id="linearGradient188793"><stop
         style="stop-color:#000000;stop-opacity:1;"
         offset="0"
         id="stop188791" /></linearGradient><linearGradient
       id="linearGradient188540"><stop
         style="stop-color:#000000;stop-opacity:1;"
         offset="0"
         id="stop188538" /></linearGradient><linearGradient
       id="linearGradient188304"><stop
         style="stop-color:#000000;stop-opacity:1;"
         offset="0"
         id="stop188302" /></linearGradient><linearGradient
       id="linearGradient187619"><stop
         style="stop-color:#000000;stop-opacity:1;"
         offset="0"
         id="stop187617" /></linearGradient><linearGradient
       id="Outputs-color"><stop
         style="stop-color:#e64980;stop-opacity:1;"
         offset="0"
         id="stop184527" /></linearGradient><linearGradient
       id="linearGradient184488"><stop
         style="stop-color:#15aabf;stop-opacity:1;"
         offset="0"
         id="stop184486" /></linearGradient><linearGradient
       id="Inputs-color"><stop
         style="stop-color:#1098ad;stop-opacity:1;"
         offset="0"
         id="stop183859" /></linearGradient><linearGradient
       xlink:href="#Outputs-color"
       id="linearGradient188886"
       x1="2"
       y1="12.000549"
       x2="22"
       y2="12.000549"
       gradientUnits="userSpaceOnUse" /></defs><g
     id="layer1"
     transform="translate(247,-415.07367)"><g
       style="fill:none;stroke:currentColor;stroke-width:2;stroke-linecap:round;stroke-linejoin:round"
       id="icon_out_stepper"
       transform="translate(-247,415.07367)"><path
         stroke="none"
         d="M 0,0 H 24 V 24 H 0 Z"
         fill="none"
         id="path163142"
         style="fill:none" /><path
         id="path163144"
         style="color:#000000;fill:url(#linearGradient188886);fill-opacity:1;stroke:none;stroke-linecap:butt;stroke-linejoin:miter;-inkscape-stroke:none"
         d="m 12,2.0005488 c -5.5109908,0 -10,4.4890051 -10,10.0000002 0,5.510994 4.4890092,10 10,10 5.51099,0 10,-4.489006 10,-10 C 22,6.4895539 17.51099,2.0005487 12,2.0005488 Z m 0,2 c 4.430115,0 8,3.5698825 8,8.0000002 0,4.430117 -3.569885,8 -8,8 -4.4301147,0 -8,-3.569883 -8,-8 0,-4.4301177 3.5698853,-8.0000002 8,-8.0000002 z m 0,2 c -3.3018573,0 -6,2.6981427 -6,6.0000002 a 1,1 0 0 0 1,1 1,1 0 0 0 1,-1 C 8,9.7795696 9.7790208,8.0005488 12,8.0005488 a 1,1 0 0 0 1,-1 1,1 0 0 0 -1,-1 z m 3.888672,1.0058593 A 1,1 0 0 0 15.292969,7.2935175 L 12.703125,9.8833613 A 1,1 0 0 0 12.556641,10.072814 C 12.373352,10.023098 12.185533,10.000549 12,10.000549 c -0.472222,0 -0.957882,0.152014 -1.351562,0.501953 -0.206335,0.183409 -0.22659,0.512144 -0.339844,0.785156 A 1,1 0 0 0 10,12.000549 a 1,1 0 0 0 0.308594,0.71289 c 0.113254,0.273012 0.133509,0.601748 0.339844,0.785157 0.39368,0.349938 0.87934,0.501953 1.351562,0.501953 0.472222,0 0.957881,-0.152015 1.351562,-0.501953 C 13.745243,13.148657 14,12.583881 14,12.000549 14,11.810752 13.97378,11.623015 13.92383,11.443908 a 1,1 0 0 0 0.19336,-0.146484 L 16.707031,8.70758 a 1,1 0 0 0 0,-1.4140625 1,1 0 0 0 -0.818359,-0.2871094 z" /></g></g></svg>
