<svg id="SVGRoot" width="24" height="24" version="1.1" viewBox="0 0 24 24" xml:space="preserve" xmlns="http://www.w3.org/2000/svg"><path d="m24 0h-24v24h24z" fill="none" stroke-linecap="round" stroke-linejoin="round" stroke-width="2"/><g fill="#e64980"><path d="m15.414 6.9269a1 1 0 0 0-0.70703 0.29297 1 1 0 0 0 0 1.4141l3.293 3.293-3.293 3.293a1 1 0 0 0 0 1.4141 1 1 0 0 0 0.81836 0.28516 1 1 0 0 0 0.5957-0.28516l4-4a1 1 0 0 0 0.05664-0.06055 1 1 0 0 0-0.05664-1.3535l-4-4a1 1 0 0 0-0.70703-0.29297z" color="#000000" style="-inkscape-stroke:none"/><path d="m9.4138 6.9269a1 1 0 0 0-0.70703 0.29297 1 1 0 0 0 0 1.4141l3.293 3.293-3.293 3.293a1 1 0 0 0 0 1.4141 1 1 0 0 0 1.4141 0l4-4a1 1 0 0 0 0.05664-0.06055 1 1 0 0 0-0.05664-1.3535l-4-4a1 1 0 0 0-0.70703-0.29297z" color="#000000" style="-inkscape-stroke:none"/><path d="m5.3535 2.9269a1 1 0 0 0-1 1v16a1 1 0 0 0 1 1 1 1 0 0 0 1-1v-16a1 1 0 0 0-1-1z" color="#000000" style="-inkscape-stroke:none"/></g></svg>
