<?xml version="1.0" encoding="UTF-8" standalone="no"?>
<!-- Created with Inkscape (http://www.inkscape.org/) -->

<svg
   width="6.3499999mm"
   height="6.3499999mm"
   viewBox="0 0 24 24"
   version="1.1"
   id="SVGRoot"
   xml:space="preserve"
   xmlns:xlink="http://www.w3.org/1999/xlink"
   xmlns="http://www.w3.org/2000/svg"
   xmlns:svg="http://www.w3.org/2000/svg"><defs
     id="defs44105"><linearGradient
       id="linearGradient190538"><stop
         style="stop-color:#15aabf;stop-opacity:1;"
         offset="0"
         id="stop190536" /></linearGradient><linearGradient
       id="linearGradient190532"><stop
         style="stop-color:#82c91e;stop-opacity:1;"
         offset="0"
         id="stop190530" /></linearGradient><linearGradient
       id="linearGradient188951"><stop
         style="stop-color:#000000;stop-opacity:1;"
         offset="0"
         id="stop188949" /></linearGradient><linearGradient
       id="linearGradient188884"><stop
         style="stop-color:#000000;stop-opacity:1;"
         offset="0"
         id="stop188882" /></linearGradient><linearGradient
       id="linearGradient188861"><stop
         style="stop-color:#000000;stop-opacity:1;"
         offset="0"
         id="stop188859" /></linearGradient><linearGradient
       id="linearGradient188812"><stop
         style="stop-color:#000000;stop-opacity:1;"
         offset="0"
         id="stop188810" /></linearGradient><linearGradient
       id="linearGradient188793"><stop
         style="stop-color:#000000;stop-opacity:1;"
         offset="0"
         id="stop188791" /></linearGradient><linearGradient
       id="linearGradient188540"><stop
         style="stop-color:#000000;stop-opacity:1;"
         offset="0"
         id="stop188538" /></linearGradient><linearGradient
       id="linearGradient188304"><stop
         style="stop-color:#000000;stop-opacity:1;"
         offset="0"
         id="stop188302" /></linearGradient><linearGradient
       id="linearGradient187619"><stop
         style="stop-color:#000000;stop-opacity:1;"
         offset="0"
         id="stop187617" /></linearGradient><linearGradient
       id="Outputs-color"><stop
         style="stop-color:#e64980;stop-opacity:1;"
         offset="0"
         id="stop184527" /></linearGradient><linearGradient
       id="linearGradient184488"><stop
         style="stop-color:#15aabf;stop-opacity:1;"
         offset="0"
         id="stop184486" /></linearGradient><linearGradient
       id="Inputs-color"><stop
         style="stop-color:#1098ad;stop-opacity:1;"
         offset="0"
         id="stop183859" /></linearGradient><linearGradient
       xlink:href="#Outputs-color"
       id="linearGradient188863"
       x1="1.9898655"
       y1="11.978088"
       x2="22.010134"
       y2="11.978088"
       gradientUnits="userSpaceOnUse" /></defs><g
     id="layer1"
     transform="translate(247,-391.07367)"><g
       style="fill:none;stroke:currentColor;stroke-width:2;stroke-linecap:round;stroke-linejoin:round"
       id="icon_out_servo"
       transform="translate(-247,391.07367)"><path
         stroke="none"
         d="M 0,0 H 24 V 24 H 0 Z"
         fill="none"
         id="path164657"
         style="fill:none" /><path
         id="path188856"
         style="color:#000000;fill:url(#linearGradient188863);fill-opacity:1;stroke:none;stroke-linecap:butt;stroke-linejoin:miter;-inkscape-stroke:none"
         d="m 12,2.9556269 c -4.6806353,0 -8.1478866,2.9997903 -9.4414062,6.7050781 -1.2935198,3.705288 -0.4461873,8.210059 3.21875,11.123047 a 1.0001,1.0001 0 0 0 0.6230468,0.216797 H 17.599609 a 1.0001,1.0001 0 0 0 0.623047,-0.216797 c 3.664938,-2.912988 4.51227,-7.417759 3.21875,-11.123047 C 20.147887,5.9554172 16.680635,2.9556269 12,2.9556269 Z m 0,2 c 3.840217,0 6.508466,2.3719733 7.552734,5.3632811 1.01565,2.90933 0.422573,6.298153 -2.375,8.681641 H 6.8222656 c -2.7975718,-2.383488 -3.39065,-5.772311 -2.375,-8.681641 C 5.4915344,7.3276002 8.1597829,4.9556269 12,4.9556269 Z m 3.5,3.5449219 A 1,1 0 0 0 14.792969,8.7935175 L 13.308594,10.277893 C 12.893213,10.089064 12.444304,10.000549 12,10.000549 c -0.72222,0 -1.457882,0.235348 -2.0390625,0.751953 C 9.3797568,11.269107 9,12.083884 9,13.000549 9,13.917214 9.3797568,14.73199 9.9609375,15.248596 10.542118,15.7652 11.27778,16.000549 12,16.000549 c 0.72222,0 1.457881,-0.235349 2.039062,-0.751953 C 14.620243,14.73199 15,13.917214 15,13.000549 15,12.528698 14.899578,12.083041 14.722656,11.691955 l 1.484375,-1.484375 a 1,1 0 0 0 0,-1.4140625 A 1,1 0 0 0 15.5,8.5005488 Z M 12,12.000549 c 0.277778,0 0.54212,0.09799 0.710938,0.248047 C 12.879754,12.398655 13,12.583883 13,13.000549 c 0,0.416665 -0.120246,0.601893 -0.289062,0.751953 -0.168818,0.15006 -0.43316,0.248047 -0.710938,0.248047 -0.277778,0 -0.542121,-0.09799 -0.710938,-0.248047 C 11.120245,13.602442 11,13.417214 11,13.000549 11,12.583883 11.120245,12.398655 11.289062,12.248596 11.457879,12.098536 11.722222,12.000549 12,12.000549 Z" /></g></g></svg>
