<?xml version="1.0" encoding="UTF-8" standalone="no"?>
<!-- Created with Inkscape (http://www.inkscape.org/) -->

<svg
   width="6.3499999mm"
   height="6.3499999mm"
   viewBox="0 0 24 24"
   version="1.1"
   id="SVGRoot"
   xml:space="preserve"
   xmlns:xlink="http://www.w3.org/1999/xlink"
   xmlns="http://www.w3.org/2000/svg"
   xmlns:svg="http://www.w3.org/2000/svg"><defs
     id="defs44105"><linearGradient
       id="linearGradient190538"><stop
         style="stop-color:#15aabf;stop-opacity:1;"
         offset="0"
         id="stop190536" /></linearGradient><linearGradient
       id="linearGradient190532"><stop
         style="stop-color:#82c91e;stop-opacity:1;"
         offset="0"
         id="stop190530" /></linearGradient><linearGradient
       id="linearGradient188951"><stop
         style="stop-color:#000000;stop-opacity:1;"
         offset="0"
         id="stop188949" /></linearGradient><linearGradient
       id="linearGradient188884"><stop
         style="stop-color:#000000;stop-opacity:1;"
         offset="0"
         id="stop188882" /></linearGradient><linearGradient
       id="linearGradient188861"><stop
         style="stop-color:#000000;stop-opacity:1;"
         offset="0"
         id="stop188859" /></linearGradient><linearGradient
       id="linearGradient188812"><stop
         style="stop-color:#000000;stop-opacity:1;"
         offset="0"
         id="stop188810" /></linearGradient><linearGradient
       id="linearGradient188793"><stop
         style="stop-color:#000000;stop-opacity:1;"
         offset="0"
         id="stop188791" /></linearGradient><linearGradient
       id="linearGradient188540"><stop
         style="stop-color:#000000;stop-opacity:1;"
         offset="0"
         id="stop188538" /></linearGradient><linearGradient
       id="linearGradient188304"><stop
         style="stop-color:#000000;stop-opacity:1;"
         offset="0"
         id="stop188302" /></linearGradient><linearGradient
       id="linearGradient187619"><stop
         style="stop-color:#000000;stop-opacity:1;"
         offset="0"
         id="stop187617" /></linearGradient><linearGradient
       id="Outputs-color"><stop
         style="stop-color:#e64980;stop-opacity:1;"
         offset="0"
         id="stop184527" /></linearGradient><linearGradient
       id="linearGradient184488"><stop
         style="stop-color:#15aabf;stop-opacity:1;"
         offset="0"
         id="stop184486" /></linearGradient><linearGradient
       id="Inputs-color"><stop
         style="stop-color:#1098ad;stop-opacity:1;"
         offset="0"
         id="stop183859" /></linearGradient><linearGradient
       xlink:href="#Outputs-color"
       id="linearGradient187621"
       x1="2"
       y1="12.000549"
       x2="21.731485"
       y2="12.000549"
       gradientUnits="userSpaceOnUse" /></defs><g
     id="layer1"
     transform="translate(247,-175.07367)"><g
       style="fill:none;stroke:currentColor;stroke-width:2;stroke-linecap:round;stroke-linejoin:round"
       id="icon_out_lcd"
       transform="translate(-247,175.07367)"><path
         stroke="none"
         d="M 0,0 H 24 V 24 H 0 Z"
         fill="none"
         id="path154345"
         style="fill:none" /><path
         id="path154347"
         style="color:#000000;fill:url(#linearGradient187621);fill-opacity:1;stroke:none;stroke-linecap:butt;stroke-linejoin:miter;-inkscape-stroke:none"
         d="m 5,7.0005488 c -0.7222207,0 -1.4578818,0.2353482 -2.0390625,0.7519531 C 2.3797568,8.2691068 2,9.0838841 2,10.000549 v 6 a 1,1 0 0 0 1,1 1,1 0 0 0 1,-1 v -2 h 2 v 2 a 1,1 0 0 0 1,1 1,1 0 0 0 1,-1 v -6 C 8,9.0838841 7.6202432,8.2691068 7.0390625,7.7525019 6.4578818,7.235897 5.7222207,7.0005487 5,7.0005488 Z m 5,0 a 1,1 0 0 0 -1,1 v 5.0000002 1 C 9,14.917214 9.3797568,15.73199 9.9609375,16.248596 10.542118,16.7652 11.27778,17.000549 12,17.000549 c 0.72222,0 1.457881,-0.235349 2.039062,-0.751953 C 14.620243,15.73199 15,14.917214 15,14.000549 v -1 C 15,12.083884 14.620243,11.269107 14.039062,10.752502 13.457881,10.235897 12.72222,10.000549 12,10.000549 c -0.354235,0 -0.659039,0.250331 -1,0.36914 V 8.0005488 a 1,1 0 0 0 -1,-1 z m -5,2 c 0.2777773,0 0.5421198,0.097987 0.7109375,0.2480468 C 5.8797552,9.3986558 6,9.5838833 6,10.000549 v 2 H 4 v -2 C 4,9.5838833 4.1202448,9.3986558 4.2890625,9.2485956 4.4578802,9.0985355 4.7222227,9.0005487 5,9.0005488 Z m 13.912109,1.0039062 c -0.234907,0.0054 -0.466924,0.03803 -0.689453,0.09766 C 17.035835,10.420123 16.000064,11.536216 16,13.000549 v 1 c 2.98e-4,1.46025 1.031432,2.573746 2.214844,2.894531 1.183411,0.320786 2.637275,-0.11871 3.375,-1.378906 a 1,1 0 0 0 -0.359375,-1.369141 1,1 0 0 0 -1.367188,0.357422 c -0.292697,0.499994 -0.703124,0.575294 -1.125,0.460938 C 18.316406,14.851036 18.000118,14.579915 18,14.000549 v -1 c 2.6e-5,-0.581768 0.316868,-0.853354 0.740234,-0.966797 0.423368,-0.113442 0.834092,-0.03702 1.125,0.466797 a 1,1 0 0 0 1.367188,0.365234 1,1 0 0 0 0.365234,-1.365234 C 21.002719,10.470208 19.930041,9.9810928 18.912109,10.004455 Z M 12,12.000549 c 0.277778,0 0.54212,0.09799 0.710938,0.248047 C 12.879754,12.398655 13,12.583883 13,13.000549 v 1 c 0,0.416665 -0.120246,0.601893 -0.289062,0.751953 -0.168818,0.15006 -0.43316,0.248047 -0.710938,0.248047 -0.277778,0 -0.542121,-0.09799 -0.710938,-0.248047 C 11.120245,14.602442 11,14.417214 11,14.000549 v -1 c 0,-0.416666 0.120245,-0.601894 0.289062,-0.751953 0.168817,-0.15006 0.43316,-0.248047 0.710938,-0.248047 z" /></g></g></svg>
