<?xml version="1.0" encoding="UTF-8" standalone="no"?>
<!-- Created with Inkscape (http://www.inkscape.org/) -->

<svg
   width="6.3499999mm"
   height="6.3499999mm"
   viewBox="0 0 24 24"
   version="1.1"
   id="SVGRoot"
   xml:space="preserve"
   xmlns:xlink="http://www.w3.org/1999/xlink"
   xmlns="http://www.w3.org/2000/svg"
   xmlns:svg="http://www.w3.org/2000/svg"><defs
     id="defs44105"><linearGradient
       id="linearGradient190538"><stop
         style="stop-color:#15aabf;stop-opacity:1;"
         offset="0"
         id="stop190536" /></linearGradient><linearGradient
       id="linearGradient190532"><stop
         style="stop-color:#82c91e;stop-opacity:1;"
         offset="0"
         id="stop190530" /></linearGradient><linearGradient
       id="linearGradient188951"><stop
         style="stop-color:#000000;stop-opacity:1;"
         offset="0"
         id="stop188949" /></linearGradient><linearGradient
       id="linearGradient188884"><stop
         style="stop-color:#000000;stop-opacity:1;"
         offset="0"
         id="stop188882" /></linearGradient><linearGradient
       id="linearGradient188861"><stop
         style="stop-color:#000000;stop-opacity:1;"
         offset="0"
         id="stop188859" /></linearGradient><linearGradient
       id="linearGradient188812"><stop
         style="stop-color:#000000;stop-opacity:1;"
         offset="0"
         id="stop188810" /></linearGradient><linearGradient
       id="linearGradient188793"><stop
         style="stop-color:#000000;stop-opacity:1;"
         offset="0"
         id="stop188791" /></linearGradient><linearGradient
       id="linearGradient188540"><stop
         style="stop-color:#000000;stop-opacity:1;"
         offset="0"
         id="stop188538" /></linearGradient><linearGradient
       id="linearGradient188304"><stop
         style="stop-color:#000000;stop-opacity:1;"
         offset="0"
         id="stop188302" /></linearGradient><linearGradient
       id="linearGradient187619"><stop
         style="stop-color:#000000;stop-opacity:1;"
         offset="0"
         id="stop187617" /></linearGradient><linearGradient
       id="Outputs-color"><stop
         style="stop-color:#e64980;stop-opacity:1;"
         offset="0"
         id="stop184527" /></linearGradient><linearGradient
       id="linearGradient184488"><stop
         style="stop-color:#15aabf;stop-opacity:1;"
         offset="0"
         id="stop184486" /></linearGradient><linearGradient
       id="Inputs-color"><stop
         style="stop-color:#1098ad;stop-opacity:1;"
         offset="0"
         id="stop183859" /></linearGradient><linearGradient
       xlink:href="#Outputs-color"
       id="linearGradient188795"
       x1="2.0008328"
       y1="12.000353"
       x2="21.99737"
       y2="12.000353"
       gradientUnits="userSpaceOnUse" /></defs><g
     id="layer1"
     transform="translate(247,-343.07367)"><g
       style="fill:none;stroke:currentColor;stroke-width:2;stroke-linecap:round;stroke-linejoin:round"
       id="icon_out_led"
       transform="translate(-247,343.07367)"><path
         stroke="none"
         d="M 0,0 H 24 V 24 H 0 Z"
         fill="none"
         id="path157497"
         style="fill:none" /><path
         id="path188736"
         style="color:#000000;fill:url(#linearGradient188795);fill-opacity:1;stroke:none;stroke-width:0;stroke-linecap:butt;stroke-linejoin:miter;-inkscape-stroke:none"
         d="m 11.949219,2.0005488 c -0.03409,0.00173 -0.06846,0.00666 -0.101563,0.011719 a 1,1 0 0 0 -0.01172,0.00195 c -0.0455,0.00752 -0.08961,0.017811 -0.132813,0.03125 a 1,1 0 0 0 -0.01172,0.00391 c -0.24528,0.079635 -0.449081,0.2514427 -0.570312,0.4746094 a 1,1 0 0 0 -0.01172,0.021484 c -0.04608,0.089975 -0.07865,0.1878102 -0.0957,0.2910157 a 1,1 0 0 0 -0.002,0.00781 c -2.02e-4,0.00129 1.97e-4,0.00262 0,0.00391 a 1,1 0 0 0 0,0.00586 C 11.004708,2.9018527 11,2.9508138 11,3.0005488 v 1 l 0.0078,0.1171875 C 11.156152,5.3649011 12.9986,5.2565038 13,4.0005488 v -1 L 12.9922,2.8833613 C 12.9858,2.8293263 12.97542,2.77602 12.96095,2.7251581 a 1,1 0 0 1 0,-0.00195 C 12.94617,2.6716251 12.9267,2.6224219 12.90431,2.5747706 a 1,1 0 0 1 0,-0.00195 C 12.88132,2.5241216 12.85439,2.4780256 12.82423,2.4341487 A 1,1 0 0 0 12.8125,2.4185175 C 12.663665,2.2107488 12.438511,2.0632962 12.179688,2.0161738 a 1,1 0 0 0 -0.03906,-0.00586 c -0.04588,-0.00646 -0.0931,-0.00976 -0.140625,-0.00977 -0.01726,0 -0.03374,-8.64e-4 -0.05078,0 z m 6.458984,2.5878906 c -0.241586,-0.00513 -0.493488,0.084082 -0.714844,0.3046875 l -0.701171,0.6992187 -0.08203,0.09375 c -0.764651,0.9889115 0.610673,2.2027332 1.496094,1.3203125 l 0.701172,-0.6992187 0.08203,-0.09375 C 19.593091,5.6914207 19.400419,5.1071876 18.998047,4.80133 a 1,1 0 0 1 -0.002,-0.00195 1,1 0 0 0 -0.0059,-0.00391 C 18.822387,4.6702075 18.619591,4.5929261 18.408203,4.5884394 Z M 5.6132812,4.6001581 c -0.045266,-6.181e-4 -0.08984,0.00233 -0.1347656,0.00781 a 1,1 0 0 0 -0.021484,0.00195 c -0.00264,3.8e-4 -0.00518,0.00155 -0.00781,0.00195 a 1,1 0 0 0 -0.00781,0.00195 c -0.039396,0.00631 -0.078681,0.014376 -0.1171874,0.025391 a 1,1 0 0 0 -0.033203,0.00977 c -0.042469,0.01379 -0.084391,0.031218 -0.125,0.050781 a 1,1 0 0 0 -0.027344,0.015625 c -0.042223,0.022015 -0.083761,0.045853 -0.1230469,0.074219 -0.042876,0.030958 -0.084579,0.065051 -0.1230469,0.1035156 -0.041826,0.041839 -0.078464,0.086002 -0.1113281,0.1328125 -0.034233,0.048761 -0.063383,0.09951 -0.087891,0.1523437 -0.024305,0.052396 -0.043854,0.1070292 -0.058594,0.1621094 -0.013202,0.049335 -0.021815,0.099902 -0.027344,0.1503906 -4.98e-4,0.00455 -0.00152,0.00912 -0.00195,0.013672 a 1,1 0 0 0 -0.00195,0.03125 c -0.00277,0.043007 -0.00277,0.085899 0,0.1289063 a 1,1 0 0 0 0.00195,0.03125 1,1 0 0 0 0.00195,0.011719 c 0.00543,0.050504 0.014235,0.1010288 0.027344,0.1503906 0.014032,0.052842 0.031859,0.1038857 0.054687,0.1542969 0.00124,0.00274 0.00264,0.00508 0.00391,0.00781 a 1,1 0 0 0 0.00586,0.011719 c 0.023366,0.048706 0.05032,0.097409 0.082031,0.1425781 0.032864,0.04681 0.069502,0.090973 0.1113281,0.1328125 L 5.59375,7.0064081 5.6875,7.0903925 c 0.4635523,0.3584302 0.975583,0.2468775 1.2988281,-0.064453 0.00261,-0.00251 0.00523,-0.00527 0.00781,-0.00781 a 1,1 0 0 0 0.00781,-0.00781 c 0.031201,-0.031264 0.060666,-0.064828 0.087891,-0.099609 0.00317,-0.00405 0.00665,-0.00763 0.00977,-0.011719 a 1,1 0 0 0 0.00586,-0.00781 C 7.3738897,6.5315012 7.4214472,6.0073869 7.0078125,5.5923456 L 6.3066406,4.8931269 6.2128906,4.8091425 c -0.038979,-0.030237 -0.079255,-0.056422 -0.1210937,-0.080078 -0.00453,-0.00256 -0.00911,-0.00533 -0.013672,-0.00781 a 1,1 0 0 0 -0.00586,-0.00195 c -0.042734,-0.022957 -0.086033,-0.042331 -0.1308594,-0.058594 -0.00327,-0.00119 -0.00649,-0.00276 -0.00977,-0.00391 a 1,1 0 0 0 -0.013672,-0.00391 C 5.871644,4.6373669 5.8249569,4.6243074 5.7773438,4.6157831 5.7273264,4.6068284 5.6755391,4.6014432 5.625,4.6001581 a 1,1 0 0 0 -0.011719,0 z M 12,6.0005488 c -5.766062,0 -8.212459,7.3391902 -3.5996094,10.7988282 C 8.5734865,16.929199 8.7836302,17.000549 9,17.000549 h 6 l 0.128906,-0.0078 c 0.170924,-0.02234 0.332876,-0.08983 0.470703,-0.193359 2.103948,-1.577961 2.736229,-3.961963 2.257813,-6.089844 a 6,6 0 0 0 -0.01953,-0.08594 C 17.754298,10.274793 17.642009,9.9334317 17.5,9.6040644 A 6,6 0 0 0 17.45703,9.5083614 C 16.561229,7.5234176 14.625954,6.0005488 12,6.0005488 Z m -9,5.0000002 -0.1171875,0.0059 C 1.6356476,11.154748 1.744045,12.999156 3,13.000549 h 1 l 0.1171875,-0.0078 c 0.5583447,-0.06641 0.8432863,-0.471917 0.8769531,-0.90039 a 1,1 0 0 1 0,-0.002 C 5.0346818,11.562358 4.6928254,11.001321 4,11.000549 Z m 17,0 -0.117188,0.0059 c -1.247164,0.148299 -1.138767,1.9927 0.117188,1.9941 h 1 l 0.117188,-0.0078 c 0.558344,-0.06641 0.843286,-0.471917 0.876953,-0.90039 a 1,1 0 0 1 0,-0.002 C 22.034682,11.562358 21.692825,11.001321 21,11.000549 Z m -10,7 -0.1171875,0.0059 c -0.1417771,0.0167 -0.2742211,0.06426 -0.390625,0.132813 -0.1167522,0.06903 -0.217272,0.161234 -0.296875,0.269531 a 1,1 0 0 0 -0.015625,0.02344 c -0.071946,0.103815 -0.1256968,0.221096 -0.1542969,0.347657 a 1,1 0 0 0 -0.00391,0.02344 C 9.0085932,18.867342 9.0000089,18.932956 9,19.000549 c 0,3.99999 6,3.99999 6,0 0,-0.02604 -0.002,-0.05259 -0.0039,-0.07813 a 1,1 0 0 0 -0.002,-0.02539 c -4.79e-4,-0.0047 -0.0014,-0.009 -0.002,-0.01367 a 1,1 0 0 0 -0.01172,-0.08398 c -0.0023,-0.011 -0.0052,-0.02234 -0.0078,-0.0332 A 1,1 0 0 0 14.955,18.701729 c -10e-4,-0.0034 -0.0028,-0.0064 -0.0039,-0.0098 a 1,1 0 0 0 -0.02734,-0.07422 c -0.01028,-0.02485 -0.02103,-0.04847 -0.0332,-0.07227 a 1,1 0 0 0 -0.04883,-0.08398 c -0.01064,-0.0166 -0.02163,-0.03292 -0.0332,-0.04883 a 1,1 0 0 0 -0.03711,-0.04883 c -0.0038,-0.0047 -0.0078,-0.0091 -0.01172,-0.01367 a 1,1 0 0 0 -0.123047,-0.121094 c -0.01551,-0.0128 -0.03256,-0.02525 -0.04883,-0.03711 a 1,1 0 0 0 -0.0293,-0.02148 c -0.0032,-0.0021 -0.0066,-0.0038 -0.0098,-0.0059 a 1,1 0 0 0 -0.07227,-0.04297 c -0.0076,-0.0041 -0.01573,-0.0078 -0.02344,-0.01172 a 1,1 0 0 0 -0.06445,-0.03125 c -0.0019,-8e-4 -0.004,-0.0012 -0.0059,-0.002 a 1,1 0 0 0 -0.02539,-0.0098 c -0.01617,-0.0062 -0.03227,-0.0122 -0.04883,-0.01758 a 1,1 0 0 0 -0.01172,-0.0039 c -0.02053,-0.0064 -0.04143,-0.0125 -0.0625,-0.01758 a 1,1 0 0 0 -0.0332,-0.0078 c -0.01472,-0.003 -0.02998,-0.0055 -0.04492,-0.0078 a 1,1 0 0 0 -0.05469,-0.0078 c -0.0039,-3.93e-4 -0.0078,3.49e-4 -0.01172,0 A 1,1 0 0 0 14,18.000549 Z" /></g></g></svg>
