<?xml version="1.0" encoding="UTF-8" standalone="no"?>
<!-- Created with Inkscape (http://www.inkscape.org/) -->

<svg
   width="6.3499999mm"
   height="6.3499999mm"
   viewBox="0 0 24 24"
   version="1.1"
   id="SVGRoot"
   xml:space="preserve"
   xmlns:xlink="http://www.w3.org/1999/xlink"
   xmlns="http://www.w3.org/2000/svg"
   xmlns:svg="http://www.w3.org/2000/svg"><defs
     id="defs44105"><linearGradient
       id="linearGradient190538"><stop
         style="stop-color:#15aabf;stop-opacity:1;"
         offset="0"
         id="stop190536" /></linearGradient><linearGradient
       id="linearGradient190532"><stop
         style="stop-color:#82c91e;stop-opacity:1;"
         offset="0"
         id="stop190530" /></linearGradient><linearGradient
       id="linearGradient188951"><stop
         style="stop-color:#000000;stop-opacity:1;"
         offset="0"
         id="stop188949" /></linearGradient><linearGradient
       id="linearGradient188884"><stop
         style="stop-color:#000000;stop-opacity:1;"
         offset="0"
         id="stop188882" /></linearGradient><linearGradient
       id="linearGradient188861"><stop
         style="stop-color:#000000;stop-opacity:1;"
         offset="0"
         id="stop188859" /></linearGradient><linearGradient
       id="linearGradient188812"><stop
         style="stop-color:#000000;stop-opacity:1;"
         offset="0"
         id="stop188810" /></linearGradient><linearGradient
       id="linearGradient188793"><stop
         style="stop-color:#000000;stop-opacity:1;"
         offset="0"
         id="stop188791" /></linearGradient><linearGradient
       id="linearGradient188540"><stop
         style="stop-color:#000000;stop-opacity:1;"
         offset="0"
         id="stop188538" /></linearGradient><linearGradient
       id="linearGradient188304"><stop
         style="stop-color:#000000;stop-opacity:1;"
         offset="0"
         id="stop188302" /></linearGradient><linearGradient
       id="linearGradient187619"><stop
         style="stop-color:#000000;stop-opacity:1;"
         offset="0"
         id="stop187617" /></linearGradient><linearGradient
       id="Outputs-color"><stop
         style="stop-color:#e64980;stop-opacity:1;"
         offset="0"
         id="stop184527" /></linearGradient><linearGradient
       id="linearGradient184488"><stop
         style="stop-color:#15aabf;stop-opacity:1;"
         offset="0"
         id="stop184486" /></linearGradient><linearGradient
       id="Inputs-color"><stop
         style="stop-color:#1098ad;stop-opacity:1;"
         offset="0"
         id="stop183859" /></linearGradient><linearGradient
       xlink:href="#Outputs-color"
       id="linearGradient188814"
       x1="2.0001512"
       y1="12.000084"
       x2="22"
       y2="12.000084"
       gradientUnits="userSpaceOnUse"
       gradientTransform="translate(-247,367.07367)" /></defs><g
     id="layer1"
     transform="translate(247,-367.07367)"><g
       id="icon_out_7segment"><path
         stroke="none"
         d="m -247,367.07367 h 24 v 24 h -24 z"
         fill="none"
         id="path144177"
         style="fill:none;stroke-width:2;stroke-linecap:round;stroke-linejoin:round" /><path
         id="path144179"
         style="color:#000000;fill:url(#linearGradient188814);fill-opacity:1;stroke:none;stroke-width:2;stroke-linecap:butt;stroke-linejoin:miter;-inkscape-stroke:none"
         d="m -238,374.07422 a 1,1 0 0 0 -1,1 1,1 0 0 0 1,1 h 3 v 2 h -2 c -1.09272,0 -2,0.90728 -2,2 v 2 c 0,1.09272 0.90728,2 2,2 h 3 a 1,1 0 0 0 1,-1 1,1 0 0 0 -1,-1 h -3 v -2 h 2 c 1.09272,0 2,-0.90728 2,-2 v -2 c 0,-1.09272 -0.90728,-2 -2,-2 z m 8,0 a 1,1 0 0 0 -1,1 1,1 0 0 0 1,1 h 2.5 c 0.28799,0 0.5,0.21201 0.5,0.5 v 1 c 0,0.28799 -0.21201,0.5 -0.5,0.5 h -1.5 a 1.0001,1.0001 0 0 0 0,2 h 1.5 c 0.28799,0 0.5,0.21201 0.5,0.5 v 1 c 0,0.28799 -0.21201,0.5 -0.5,0.5 h -2.5 a 1,1 0 0 0 -1,1 1,1 0 0 0 1,1 h 2.5 c 1.36887,0 2.5,-1.13114 2.5,-2.5 v -1 c 0,-0.58221 -0.28645,-1.07254 -0.62695,-1.5 0.3405,-0.42746 0.62695,-0.91779 0.62695,-1.5 v -1 c 0,-1.36887 -1.13113,-2.5 -2.5,-2.5 z m -12.07812,0.002 a 1.0001,1.0001 0 0 0 -0.62891,0.29102 l -2,2 a 1,1 0 0 0 0,1.41406 1,1 0 0 0 1.41406,0 L -243,377.48828 v 5.58594 a 1,1 0 0 0 1,1 1,1 0 0 0 1,-1 v -8 a 1.0001,1.0001 0 0 0 -0.61719,-0.92383 1.0001,1.0001 0 0 0 -0.46093,-0.0742 z" /></g></g></svg>
