<?xml version="1.0" encoding="UTF-8" standalone="no"?>
<!-- Created with Inkscape (http://www.inkscape.org/) -->

<svg
   width="23.999969"
   height="23.999969"
   viewBox="0 0 23.999999 23.999999"
   version="1.1"
   id="SVGRoot"
   xml:space="preserve"
   xmlns:xlink="http://www.w3.org/1999/xlink"
   xmlns="http://www.w3.org/2000/svg"
   xmlns:svg="http://www.w3.org/2000/svg"><defs
     id="defs44105"><linearGradient
       id="linearGradient4844"><stop
         style="stop-color:#d35f5f;stop-opacity:1;"
         offset="0"
         id="stop4842" /></linearGradient><linearGradient
       id="linearGradient8651"><stop
         style="stop-color:#1098ad;stop-opacity:1;"
         offset="0"
         id="stop8649" /></linearGradient><linearGradient
       id="linearGradient190538"><stop
         style="stop-color:#15aabf;stop-opacity:1;"
         offset="0"
         id="stop190536" /></linearGradient><linearGradient
       id="linearGradient190532"><stop
         style="stop-color:#82c91e;stop-opacity:1;"
         offset="0"
         id="stop190530" /></linearGradient><linearGradient
       id="linearGradient188951"><stop
         style="stop-color:#000000;stop-opacity:1;"
         offset="0"
         id="stop188949" /></linearGradient><linearGradient
       id="linearGradient188884"><stop
         style="stop-color:#000000;stop-opacity:1;"
         offset="0"
         id="stop188882" /></linearGradient><linearGradient
       id="linearGradient188861"><stop
         style="stop-color:#000000;stop-opacity:1;"
         offset="0"
         id="stop188859" /></linearGradient><linearGradient
       id="linearGradient188812"><stop
         style="stop-color:#000000;stop-opacity:1;"
         offset="0"
         id="stop188810" /></linearGradient><linearGradient
       id="linearGradient188793"><stop
         style="stop-color:#000000;stop-opacity:1;"
         offset="0"
         id="stop188791" /></linearGradient><linearGradient
       id="linearGradient188540"><stop
         style="stop-color:#000000;stop-opacity:1;"
         offset="0"
         id="stop188538" /></linearGradient><linearGradient
       id="linearGradient188304"><stop
         style="stop-color:#000000;stop-opacity:1;"
         offset="0"
         id="stop188302" /></linearGradient><linearGradient
       id="linearGradient187619"><stop
         style="stop-color:#000000;stop-opacity:1;"
         offset="0"
         id="stop187617" /></linearGradient><linearGradient
       id="Outputs-color"><stop
         style="stop-color:#e64980;stop-opacity:1;"
         offset="0"
         id="stop184527" /></linearGradient><linearGradient
       id="linearGradient184488"><stop
         style="stop-color:#15aabf;stop-opacity:1;"
         offset="0"
         id="stop184486" /></linearGradient><linearGradient
       id="Inputs-color"><stop
         style="stop-color:#1098ad;stop-opacity:1;"
         offset="0"
         id="stop183859" /></linearGradient><linearGradient
       xlink:href="#Outputs-color"
       id="linearGradient60832"
       gradientUnits="userSpaceOnUse"
       x1="2.9996662"
       y1="12.000549"
       x2="21"
       y2="12.000549" /><linearGradient
       xlink:href="#Outputs-color"
       id="linearGradient60834"
       gradientUnits="userSpaceOnUse"
       x1="2.9996662"
       y1="12.000549"
       x2="21"
       y2="12.000549" /><linearGradient
       xlink:href="#Outputs-color"
       id="linearGradient60836"
       gradientUnits="userSpaceOnUse"
       x1="2.9996662"
       y1="12.000549"
       x2="21"
       y2="12.000549" /></defs><g
     id="layer1"
     transform="translate(247,-151.07283)"><g
       style="fill:none;stroke:currentColor;stroke-width:2;stroke-linecap:round;stroke-linejoin:round"
       id="icon_out_shifter"
       transform="matrix(-1,0,0,1,-223,151.07283)"><path
         stroke="none"
         d="M 0,0 H 24 V 24 H 0 Z"
         fill="none"
         id="path60818"
         style="fill:none" /><g
         id="g60828"
         transform="translate(-1.3535273,-0.0736553)"><g
           id="g60824"
           transform="translate(1.9397513)"><path
             style="color:#000000;fill:url(#linearGradient60832);fill-opacity:1;stroke:none;stroke-linecap:butt;stroke-linejoin:miter;-inkscape-stroke:none"
             d="m 8,7.0005488 a 1,1 0 0 1 0.7070312,0.2929687 1,1 0 0 1 0,1.4140625 l -3.2929687,3.292969 3.2929687,3.292969 a 1,1 0 0 1 0,1.414062 1,1 0 0 1 -0.8183593,0.285156 1,1 0 0 1 -0.5957031,-0.285156 l -4,-4 a 1,1 0 0 1 -0.056641,-0.06055 1,1 0 0 1 0.056641,-1.353515 l 4,-4.0000005 A 1,1 0 0 1 8,7.0005488 Z"
             id="path60820" /><path
             style="color:#000000;fill:url(#linearGradient60834);fill-opacity:1;stroke:none;stroke-linecap:butt;stroke-linejoin:miter;-inkscape-stroke:none"
             d="m 14,7.0005488 a 1,1 0 0 1 0.707031,0.2929687 1,1 0 0 1 0,1.4140625 l -3.292969,3.292969 3.292969,3.292969 a 1,1 0 0 1 0,1.414062 1,1 0 0 1 -1.414062,0 l -4.0000002,-4 a 1,1 0 0 1 -0.056641,-0.06055 1,1 0 0 1 0.056641,-1.353515 L 13.292969,7.2935175 A 1,1 0 0 1 14,7.0005488 Z"
             id="path60822" /></g><path
           style="color:#000000;fill:url(#linearGradient60836);fill-opacity:1;stroke:none;stroke-linecap:butt;stroke-linejoin:miter;-inkscape-stroke:none"
           d="m 20,3.0005488 a 1,1 0 0 1 1,1 V 20.000549 a 1,1 0 0 1 -1,1 1,1 0 0 1 -1,-1 V 4.0005488 a 1,1 0 0 1 1,-1 z"
           id="path60826" /></g></g></g></svg>
