<?xml version="1.0" encoding="UTF-8" standalone="no"?>
<!-- Created with Inkscape (http://www.inkscape.org/) -->

<svg
   width="6.3499999mm"
   height="6.3499999mm"
   viewBox="0 0 24 24"
   version="1.1"
   id="SVGRoot"
   xml:space="preserve"
   xmlns:xlink="http://www.w3.org/1999/xlink"
   xmlns="http://www.w3.org/2000/svg"
   xmlns:svg="http://www.w3.org/2000/svg"><defs
     id="defs44105"><linearGradient
       id="linearGradient190538"><stop
         style="stop-color:#15aabf;stop-opacity:1;"
         offset="0"
         id="stop190536" /></linearGradient><linearGradient
       id="linearGradient190532"><stop
         style="stop-color:#82c91e;stop-opacity:1;"
         offset="0"
         id="stop190530" /></linearGradient><linearGradient
       id="linearGradient188951"><stop
         style="stop-color:#000000;stop-opacity:1;"
         offset="0"
         id="stop188949" /></linearGradient><linearGradient
       id="linearGradient188884"><stop
         style="stop-color:#000000;stop-opacity:1;"
         offset="0"
         id="stop188882" /></linearGradient><linearGradient
       id="linearGradient188861"><stop
         style="stop-color:#000000;stop-opacity:1;"
         offset="0"
         id="stop188859" /></linearGradient><linearGradient
       id="linearGradient188812"><stop
         style="stop-color:#000000;stop-opacity:1;"
         offset="0"
         id="stop188810" /></linearGradient><linearGradient
       id="linearGradient188793"><stop
         style="stop-color:#000000;stop-opacity:1;"
         offset="0"
         id="stop188791" /></linearGradient><linearGradient
       id="linearGradient188540"><stop
         style="stop-color:#000000;stop-opacity:1;"
         offset="0"
         id="stop188538" /></linearGradient><linearGradient
       id="linearGradient188304"><stop
         style="stop-color:#000000;stop-opacity:1;"
         offset="0"
         id="stop188302" /></linearGradient><linearGradient
       id="linearGradient187619"><stop
         style="stop-color:#000000;stop-opacity:1;"
         offset="0"
         id="stop187617" /></linearGradient><linearGradient
       id="Outputs-color"><stop
         style="stop-color:#e64980;stop-opacity:1;"
         offset="0"
         id="stop184527" /></linearGradient><linearGradient
       id="linearGradient184488"><stop
         style="stop-color:#15aabf;stop-opacity:1;"
         offset="0"
         id="stop184486" /></linearGradient><linearGradient
       id="Inputs-color"><stop
         style="stop-color:#1098ad;stop-opacity:1;"
         offset="0"
         id="stop183859" /></linearGradient><linearGradient
       xlink:href="#Inputs-color"
       id="linearGradient184490"
       x1="3"
       y1="12.000018"
       x2="21"
       y2="12.000018"
       gradientUnits="userSpaceOnUse" /></defs><g
     id="layer1"
     transform="translate(247,-79.073669)"><g
       style="fill:none;stroke:currentColor;stroke-width:2;stroke-linecap:round;stroke-linejoin:round"
       id="icon_in_encoder"
       transform="translate(-247,79.073669)"><path
         stroke="none"
         d="M 0,0 H 24 V 24 H 0 Z"
         fill="none"
         id="path151995"
         style="fill:none" /><path
         id="path151997"
         style="color:#000000;fill:url(#linearGradient184490);fill-opacity:1;stroke:none;stroke-linecap:butt;stroke-linejoin:miter;-inkscape-stroke:none"
         d="M 12.029297,3.0161748 C 9.4250939,3.0078509 6.8067248,4.1355261 5,6.3618779 V 5.0005498 a 1,1 0 0 0 -1,-1 1,1 0 0 0 -1,1 v 4 A 1.0001,1.0001 0 0 0 4,10.00055 h 4 a 1,1 0 0 0 1,-1.0000002 1,1 0 0 0 -1,-1 H 6.2890625 C 7.8921386,5.7027753 10.410866,4.7555557 12.884766,5.0747685 c 2.945685,0.3800884 5.617932,2.413782 6.125,6.0625005 a 1,1 0 0 0 1.126953,0.853515 1,1 0 0 0 0.853515,-1.126953 C 20.362028,6.343431 16.870128,3.5713676 13.142578,3.0903935 12.773558,3.042778 12.401326,3.0173639 12.029297,3.0161748 Z M 12,10.00055 c -0.472222,0 -0.957881,0.152014 -1.351562,0.501953 -0.0129,0.01146 -0.0256,0.02261 -0.03711,0.03516 C 10.239044,10.889519 10,11.435952 10,12.00055 c 0,0.583332 0.254757,1.148108 0.648438,1.498047 0.393681,0.349938 0.87934,0.501953 1.351562,0.501953 0.472222,0 0.957882,-0.152015 1.351562,-0.501953 C 13.745243,13.148658 14,12.583882 14,12.00055 c 0,-0.564598 -0.239044,-1.111031 -0.611328,-1.462891 -0.01151,-0.01255 -0.02421,-0.02369 -0.03711,-0.03516 C 12.957882,10.152564 12.472222,10.00055 12,10.00055 Z M 3.8632812,12.010315 A 1,1 0 0 0 3.0097656,13.137269 C 3.637972,17.657668 7.129872,20.429732 10.857422,20.910706 13.809583,21.291631 16.935172,20.183624 19,17.639222 v 1.361328 a 1,1 0 0 0 1,1 1,1 0 0 0 1,-1 v -4 a 1.0001,1.0001 0 0 0 -1,-1 h -4 a 1,1 0 0 0 -1,1 1,1 0 0 0 1,1 h 1.710938 c -1.603076,2.297774 -4.121804,3.244994 -6.595704,2.925781 -2.9456845,-0.380089 -5.6179322,-2.413782 -6.1249996,-6.0625 A 1,1 0 0 0 3.8632812,12.010315 Z" /></g></g></svg>
