<?xml version="1.0" encoding="UTF-8" standalone="no"?>
<!-- Created with Inkscape (http://www.inkscape.org/) -->

<svg
   width="6.3499999mm"
   height="6.3499999mm"
   viewBox="0 0 24 24"
   version="1.1"
   id="SVGRoot"
   xml:space="preserve"
   xmlns:xlink="http://www.w3.org/1999/xlink"
   xmlns="http://www.w3.org/2000/svg"
   xmlns:svg="http://www.w3.org/2000/svg"><defs
     id="defs44105"><linearGradient
       id="linearGradient190538"><stop
         style="stop-color:#15aabf;stop-opacity:1;"
         offset="0"
         id="stop190536" /></linearGradient><linearGradient
       id="linearGradient190532"><stop
         style="stop-color:#82c91e;stop-opacity:1;"
         offset="0"
         id="stop190530" /></linearGradient><linearGradient
       id="linearGradient188951"><stop
         style="stop-color:#000000;stop-opacity:1;"
         offset="0"
         id="stop188949" /></linearGradient><linearGradient
       id="linearGradient188884"><stop
         style="stop-color:#000000;stop-opacity:1;"
         offset="0"
         id="stop188882" /></linearGradient><linearGradient
       id="linearGradient188861"><stop
         style="stop-color:#000000;stop-opacity:1;"
         offset="0"
         id="stop188859" /></linearGradient><linearGradient
       id="linearGradient188812"><stop
         style="stop-color:#000000;stop-opacity:1;"
         offset="0"
         id="stop188810" /></linearGradient><linearGradient
       id="linearGradient188793"><stop
         style="stop-color:#000000;stop-opacity:1;"
         offset="0"
         id="stop188791" /></linearGradient><linearGradient
       id="linearGradient188540"><stop
         style="stop-color:#000000;stop-opacity:1;"
         offset="0"
         id="stop188538" /></linearGradient><linearGradient
       id="linearGradient188304"><stop
         style="stop-color:#000000;stop-opacity:1;"
         offset="0"
         id="stop188302" /></linearGradient><linearGradient
       id="linearGradient187619"><stop
         style="stop-color:#000000;stop-opacity:1;"
         offset="0"
         id="stop187617" /></linearGradient><linearGradient
       id="Outputs-color"><stop
         style="stop-color:#e64980;stop-opacity:1;"
         offset="0"
         id="stop184527" /></linearGradient><linearGradient
       id="linearGradient184488"><stop
         style="stop-color:#15aabf;stop-opacity:1;"
         offset="0"
         id="stop184486" /></linearGradient><linearGradient
       id="Inputs-color"><stop
         style="stop-color:#1098ad;stop-opacity:1;"
         offset="0"
         id="stop183859" /></linearGradient><linearGradient
       xlink:href="#Inputs-color"
       id="linearGradient188306"
       x1="94.333336"
       y1="380.00052"
       x2="107.0001"
       y2="380.00052"
       gradientUnits="userSpaceOnUse" /></defs><g
     id="layer1"
     transform="translate(247,-199.07367)"><g
       id="icon_in_multiplexer"
       transform="matrix(1.5,0,0,1.5,-386.5,-358.92633)"><path
         id="rect142259-9"
         style="fill:none;stroke-width:0.999997;stroke-linecap:round;stroke-linejoin:round;paint-order:fill markers stroke;stop-color:#000000"
         d="m 93,372 h 16 v 16 H 93 Z" /><path
         id="path142225-1"
         style="color:#000000;fill:url(#linearGradient188306);fill-opacity:1;stroke-linecap:round;stroke-linejoin:round;-inkscape-stroke:none"
         d="m 105,373.3337 a 2.0000012,2.0000012 0 0 0 -1.88281,1.33203 h -1.55469 c -1.2737,0 -2.127823,0.53821 -2.813802,1.28385 -0.495339,0.53844 -0.976761,1.18098 -1.716146,1.95053 A 2.1666667,2.1666667 0 0 0 96.5,377.8337 a 2.1666667,2.1666667 0 0 0 -2.166667,2.16667 2.1666667,2.1666667 0 0 0 2.166667,2.16666 2.1666667,2.1666667 0 0 0 0.53125,-0.0677 c 0.742866,0.77206 1.225954,1.41448 1.721354,1.95313 0.685085,0.7449 1.536826,1.28125 2.809896,1.28125 h 1.55469 a 2.0000012,2.0000012 0 0 0 0.16666,0.35286 2.0000012,2.0000012 0 0 0 0.0195,0.0326 2.0000012,2.0000012 0 0 0 0.23177,0.30599 2.0000012,2.0000012 0 0 0 0.0143,0.0143 2.0000012,2.0000012 0 0 0 0.29297,0.25781 2.0000012,2.0000012 0 0 0 0.005,0.004 2.0000012,2.0000012 0 0 0 0.33073,0.18489 2.0000012,2.0000012 0 0 0 0.0456,0.0208 2.0000012,2.0000012 0 0 0 0.35026,0.11198 2.0000012,2.0000012 0 0 0 0.0469,0.008 2.0000012,2.0000012 0 0 0 0.37891,0.0404 2.0000012,2.0000012 0 0 0 0.35417,-0.0351 2.0000012,2.0000012 0 0 0 0.0625,-0.0117 2.0000012,2.0000012 0 0 0 0.32812,-0.099 2.0000012,2.0000012 0 0 0 0.056,-0.026 2.0000012,2.0000012 0 0 0 0.29167,-0.15625 2.0000012,2.0000012 0 0 0 0.0234,-0.0143 2.0000012,2.0000012 0 0 0 0.26953,-0.22005 2.0000012,2.0000012 0 0 0 0.0521,-0.0521 2.0000012,2.0000012 0 0 0 0.21745,-0.26563 2.0000012,2.0000012 0 0 0 0.0221,-0.0351 2.0000012,2.0000012 0 0 0 0.14974,-0.27995 2.0000012,2.0000012 0 0 0 0.0286,-0.0625 2.0000012,2.0000012 0 0 0 0.0964,-0.32292 2.0000012,2.0000012 0 0 0 0.013,-0.0664 2.0000012,2.0000012 0 0 0 0.0352,-0.35287 2.0000012,2.0000012 0 0 0 -0.0391,-0.39062 2.0000012,2.0000012 0 0 0 -0.11198,-0.3711 2.0000012,2.0000012 0 0 0 -0.001,-0.004 2.0000012,2.0000012 0 0 0 -0.001,-0.004 2.0000012,2.0000012 0 0 0 -0.18359,-0.34114 2.0000012,2.0000012 0 0 0 -0.2487,-0.30339 2.0000012,2.0000012 0 0 0 -0.30338,-0.2487 2.0000012,2.0000012 0 0 0 -0.34115,-0.18359 2.0000012,2.0000012 0 0 0 -0.004,-10e-4 2.0000012,2.0000012 0 0 0 -0.004,-10e-4 2.0000012,2.0000012 0 0 0 -0.3711,-0.11197 2.0000012,2.0000012 0 0 0 -0.39062,-0.0391 2.0000012,2.0000012 0 0 0 -0.38932,0.0404 2.0000012,2.0000012 0 0 0 -0.0286,0.007 2.0000012,2.0000012 0 0 0 -0.35807,0.11328 2.0000012,2.0000012 0 0 0 -0.0456,0.0208 2.0000012,2.0000012 0 0 0 -0.33073,0.1862 2.0000012,2.0000012 0 0 0 -0.001,0 2.0000012,2.0000012 0 0 0 -0.003,10e-4 2.0000012,2.0000012 0 0 0 -0.30469,0.26823 2.0000012,2.0000012 0 0 0 -0.23828,0.3138 2.0000012,2.0000012 0 0 0 -0.0156,0.0274 2.0000012,2.0000012 0 0 0 -0.16797,0.35547 h -1.55469 c -0.97623,0 -1.24695,-0.21697 -1.829427,-0.85026 -0.38871,-0.42265 -0.85686,-1.03571 -1.557292,-1.78256 a 2.1666667,2.1666667 0 0 0 0.432292,-0.86718 h 4.457027 a 2.0000012,2.0000012 0 0 0 1.9349,1.5 2.0000012,2.0000012 0 0 0 2,-2 2.0000012,2.0000012 0 0 0 -2,-2 2.0000012,2.0000012 0 0 0 -1.9349,1.5 h -4.457027 a 2.1666667,2.1666667 0 0 0 -0.428386,-0.8698 c 0.697079,-0.74385 1.162322,-1.35638 1.550782,-1.77864 0.583391,-0.63416 0.856441,-0.85156 1.832031,-0.85156 h 1.55469 A 2.0000012,2.0000012 0 0 0 105,377.3337 a 2.0000012,2.0000012 0 0 0 2,-2 2.0000012,2.0000012 0 0 0 -2,-2 z m 0.056,1.38802 a 0.61110944,0.61110944 0 0 1 0.61068,0.61198 0.61110944,0.61110944 0 0 1 -0.61068,0.61068 0.61110944,0.61110944 0 0 1 -0.61198,-0.61068 0.61110944,0.61110944 0 0 1 0.61198,-0.61198 z m -8.556,4.44531 a 0.83333331,0.83333331 0 0 1 0.833333,0.83334 A 0.83333331,0.83333331 0 0 1 96.5,380.8337 0.83333331,0.83333331 0 0 1 95.666667,380.00037 0.83333331,0.83333331 0 0 1 96.5,379.16703 Z m 8.55599,0.22136 a 0.61110944,0.61110944 0 0 1 0.61068,0.61198 0.61110944,0.61110944 0 0 1 -0.61068,0.61067 0.61110944,0.61110944 0 0 1 -0.61198,-0.61067 0.61110944,0.61110944 0 0 1 0.61198,-0.61198 z m 0,4.66666 a 0.61110944,0.61110944 0 0 1 0.61068,0.61198 0.61110944,0.61110944 0 0 1 -0.61068,0.61068 0.61110944,0.61110944 0 0 1 -0.61198,-0.61068 0.61110944,0.61110944 0 0 1 0.61198,-0.61198 z" /></g></g></svg>
