<?xml version="1.0" encoding="UTF-8" standalone="no"?>
<!-- Created with Inkscape (http://www.inkscape.org/) -->

<svg
   width="24.000263"
   height="24.073076"
   viewBox="0 0 24.000293 24.073106"
   version="1.1"
   id="SVGRoot"
   xml:space="preserve"
   xmlns:xlink="http://www.w3.org/1999/xlink"
   xmlns="http://www.w3.org/2000/svg"
   xmlns:svg="http://www.w3.org/2000/svg"><defs
     id="defs44105"><linearGradient
       id="linearGradient45809"><stop
         style="stop-color:#000000;stop-opacity:1;"
         offset="0"
         id="stop45807" /></linearGradient><linearGradient
       id="linearGradient45783"><stop
         style="stop-color:#d35f5f;stop-opacity:1;"
         offset="0"
         id="stop45781" /></linearGradient><linearGradient
       id="linearGradient87191"><stop
         style="stop-color:#ffffff;stop-opacity:1;"
         offset="0"
         id="stop87189" /></linearGradient><linearGradient
       id="linearGradient4844"><stop
         style="stop-color:#d35f5f;stop-opacity:1;"
         offset="0"
         id="stop4842" /></linearGradient><linearGradient
       id="linearGradient8651"><stop
         style="stop-color:#1098ad;stop-opacity:1;"
         offset="0"
         id="stop8649" /></linearGradient><linearGradient
       id="linearGradient190538"><stop
         style="stop-color:#15aabf;stop-opacity:1;"
         offset="0"
         id="stop190536" /></linearGradient><linearGradient
       id="linearGradient190532"><stop
         style="stop-color:#82c91e;stop-opacity:1;"
         offset="0"
         id="stop190530" /></linearGradient><linearGradient
       id="linearGradient188951"><stop
         style="stop-color:#000000;stop-opacity:1;"
         offset="0"
         id="stop188949" /></linearGradient><linearGradient
       id="linearGradient188884"><stop
         style="stop-color:#000000;stop-opacity:1;"
         offset="0"
         id="stop188882" /></linearGradient><linearGradient
       id="linearGradient188861"><stop
         style="stop-color:#000000;stop-opacity:1;"
         offset="0"
         id="stop188859" /></linearGradient><linearGradient
       id="linearGradient188812"><stop
         style="stop-color:#000000;stop-opacity:1;"
         offset="0"
         id="stop188810" /></linearGradient><linearGradient
       id="linearGradient188793"><stop
         style="stop-color:#000000;stop-opacity:1;"
         offset="0"
         id="stop188791" /></linearGradient><linearGradient
       id="linearGradient188540"><stop
         style="stop-color:#000000;stop-opacity:1;"
         offset="0"
         id="stop188538" /></linearGradient><linearGradient
       id="linearGradient188304"><stop
         style="stop-color:#000000;stop-opacity:1;"
         offset="0"
         id="stop188302" /></linearGradient><linearGradient
       id="linearGradient187619"><stop
         style="stop-color:#000000;stop-opacity:1;"
         offset="0"
         id="stop187617" /></linearGradient><linearGradient
       id="Outputs-color"><stop
         style="stop-color:#d44578;stop-opacity:1;"
         offset="0"
         id="stop184527" /></linearGradient><linearGradient
       id="linearGradient184488"><stop
         style="stop-color:#15aabf;stop-opacity:1;"
         offset="0"
         id="stop184486" /></linearGradient><linearGradient
       id="Inputs-color"><stop
         style="stop-color:#1096aa;stop-opacity:1;"
         offset="0"
         id="stop183859" /></linearGradient><linearGradient
       xlink:href="#Outputs-color"
       id="linearGradient45811"
       x1="2"
       y1="11.999093"
       x2="22"
       y2="11.999093"
       gradientUnits="userSpaceOnUse"
       gradientTransform="matrix(-1,0,0,1,24.000294,-0.0731063)" /></defs><g
     id="layer1"
     transform="translate(247.00029,-439.00056)"><g
       style="fill:none;stroke:currentColor;stroke-width:2;stroke-linecap:round;stroke-linejoin:round"
       id="icon_out_customdevice"
       transform="matrix(-1,0,0,1,-223,439.07367)"><path
         stroke="none"
         d="M 0,0 H 24 V 24 H 0 Z"
         fill="none"
         id="path175941"
         style="fill:none" /><path
         stroke="none"
         d="m 24.000294,-0.0731063 h -24 V 23.926894 h 24 z"
         fill="none"
         id="path43162" /><path
         id="path43164"
         style="color:#000000;fill:url(#linearGradient45811);fill-opacity:1;stroke:none;stroke-linecap:butt;stroke-linejoin:miter;-inkscape-stroke:none"
         d="m 12.000294,0.92688 c 0.516585,0 1.033237,0.13207 1.496095,0.3964849 l 7.000009,4.0078175 a 1.0001,1.0001 0 0 1 0.002,0.00195 c 0.372456,0.2136073 0.685178,0.5032993 0.929692,0.8398479 a 1,1 0 0 1 0.167969,0.214844 1,1 0 0 1 0.05859,0.1542971 c 0.219646,0.4185714 0.345703,0.8867745 0.345703,1.3750017 v 8.0195419 c 0,1.067249 -0.577669,2.054281 -1.503908,2.583987 l -7.000009,4.007818 c -0.453509,0.259074 -0.958684,0.389299 -1.464845,0.394532 a 1,1 0 0 1 -0.03125,0.0039 1,1 0 0 1 -0.03125,-0.0039 c -0.506161,-0.0052 -1.011336,-0.135458 -1.464846,-0.394532 L 3.504189,18.520652 a 1.0001,1.0001 0 0 1 -0.002,0 C 2.576368,17.989662 2.000234,17.001466 2.000234,15.934712 V 7.9171231 a 1.0001,1.0001 0 0 1 0,-0.00195 C 2.001092,7.452315 2.114235,7.0068392 2.312782,6.6046215 A 1,1 0 0 1 2.404579,6.3878243 1,1 0 0 1 2.570594,6.1749334 c 0.24516,-0.3390339 0.558773,-0.630009 0.933595,-0.843751 h 0.002 L 10.504198,1.3233649 C 10.967057,1.05895 11.483708,0.92688 12.000294,0.92688 Z m 0,1.9980494 c -0.173546,0 -0.347093,0.045183 -0.503907,0.1347658 L 5.041301,6.7550123 12.000294,10.772596 18.957334,6.7550123 12.504201,3.0596952 C 12.347387,2.9701129 12.17384,2.9249294 12.000294,2.9249294 Z m 8.00001,5.5390694 -7.000009,4.0390682 v 8.005869 l 6.503914,-3.724614 c 0.311759,-0.178292 0.496095,-0.49691 0.496095,-0.847657 z m -16.00002,0 v 7.4707132 c 0,0.349242 0.185918,0.672555 0.498047,0.851563 l 6.501962,3.722661 v -8.005869 z" /></g></g></svg>
